<?xml version="1.0" encoding="UTF-8" standalone="no"?>
<!-- Generator: Adobe Illustrator 14.0.0, SVG Export Plug-In . SVG Version: 6.00 Build 43363)  -->
<svg
   xmlns:dc="http://purl.org/dc/elements/1.1/"
   xmlns:cc="http://creativecommons.org/ns#"
   xmlns:rdf="http://www.w3.org/1999/02/22-rdf-syntax-ns#"
   xmlns:svg="http://www.w3.org/2000/svg"
   xmlns="http://www.w3.org/2000/svg"
   xmlns:sodipodi="http://sodipodi.sourceforge.net/DTD/sodipodi-0.dtd"
   xmlns:inkscape="http://www.inkscape.org/namespaces/inkscape"
   version="1.0"
   id="Layer_1"
   x="0px"
   y="0px"
   width="455.64337"
   height="339.69736"
   viewBox="0 0 595.275 841.89"
   enable-background="new 0 0 595.275 841.89"
   xml:space="preserve"
   sodipodi:version="0.32"
   inkscape:version="0.46"
   sodipodi:docname="pb_svart.svg"
   inkscape:output_extension="org.inkscape.output.svg.inkscape"><metadata
   id="metadata16"><rdf:RDF><cc:Work
       rdf:about=""><dc:format>image/svg+xml</dc:format><dc:type
         rdf:resource="http://purl.org/dc/dcmitype/StillImage" /></cc:Work></rdf:RDF></metadata><defs
   id="defs14"><inkscape:perspective
     sodipodi:type="inkscape:persp3d"
     inkscape:vp_x="0 : 420.94501 : 1"
     inkscape:vp_y="0 : 1000 : 0"
     inkscape:vp_z="595.27502 : 420.94501 : 1"
     inkscape:persp3d-origin="297.63751 : 280.63 : 1"
     id="perspective18" /></defs><sodipodi:namedview
   inkscape:window-height="669"
   inkscape:window-width="987"
   inkscape:pageshadow="2"
   inkscape:pageopacity="0.0"
   guidetolerance="10.0"
   gridtolerance="10.0"
   objecttolerance="10.0"
   borderopacity="1.0"
   bordercolor="#666666"
   pagecolor="#ffffff"
   id="base"
   showgrid="false"
   inkscape:zoom="0.54876527"
   inkscape:cx="297.63751"
   inkscape:cy="331.96599"
   inkscape:window-x="115"
   inkscape:window-y="115"
   inkscape:current-layer="Layer_1" />
<g
   id="g3"
   transform="matrix(2.4358469,0,0,2.4358469,-411.86402,-180.86431)">
	<path
   d="M 512.475,315.628 L 512.455,315.62 L 512.475,315.62 L 509.618,312.42 C 507.839,310.553 507.301,309.978 506.631,306.144 C 506.55,305.899 506.55,305.67 506.55,305.43 C 506.55,303.448 507.908,301.254 509.434,298.741 C 511.602,295.2 514.259,290.839 514.259,285.208 C 514.259,284.847 514.259,284.517 514.222,284.154 C 513.738,275.665 507.689,265.943 498.825,264.959 C 488.417,263.815 479.735,269.816 475.731,276.31 C 474.496,278.317 473.83,281.354 473.122,284.572 C 471.601,291.477 469.875,299.298 462.288,300.382 L 300.394,323.12 C 300.364,322.969 295.086,323.727 294.307,323.833 C 293.814,323.72 282.002,320.823 282.002,320.823 C 281.933,320.995 122.91,283.132 122.91,283.132 C 115.446,281.346 114.448,273.388 113.586,266.391 C 113.195,263.136 112.814,260.041 111.772,257.91 C 108.383,251.106 100.306,244.277 89.855,244.436 C 80.913,244.583 73.98,253.734 72.71,262.109 C 71.77,268.189 74.191,273.125 76.107,277.084 C 77.572,280.056 78.796,282.622 78.225,284.728 C 77.173,288.467 76.582,288.98 74.629,290.686 L 71.483,293.601 C 66.233,298.968 61.858,308.816 63.697,317.255 C 64.467,320.673 67.581,323.767 72.499,325.95 C 78.521,328.597 87.843,329.885 94.088,326.324 C 97.547,324.346 100.263,320.494 102.856,316.761 C 106.966,310.922 110.85,305.393 117.185,306.94 C 117.185,306.94 203.27,327.508 228.204,333.466 C 216.623,335.14 157.573,343.724 157.573,343.724 C 149.988,344.804 146.143,337.779 142.74,331.569 C 141.185,328.693 139.688,325.965 137.937,324.394 C 132.28,319.29 122.264,315.915 112.588,319.914 C 104.345,323.352 101.281,334.381 103.15,342.652 C 104.534,348.659 108.602,352.362 111.855,355.317 C 114.268,357.555 116.387,359.466 116.611,361.631 C 117.019,365.502 116.68,366.218 115.484,368.515 L 113.642,372.395 C 110.717,379.312 110.28,390.081 115.093,397.231 C 117.051,400.122 121.075,401.844 126.458,402.075 C 133.079,402.346 142.184,400.085 146.683,394.482 C 149.18,391.367 150.28,386.793 151.335,382.352 C 152.996,375.418 154.555,368.857 161.001,367.935 L 261.559,353.464 C 261.559,353.464 292.682,349.058 293.169,348.991 C 293.662,349.109 318.094,354.946 318.094,354.946 C 318.337,355.004 416.485,378.723 416.485,378.723 C 422.811,380.236 423.767,386.913 424.767,393.984 C 425.391,398.505 426.065,403.148 428.252,406.505 C 432.19,412.483 441.097,415.598 447.656,415.94 C 453.048,416.247 457.226,414.916 459.44,412.2 C 464.916,405.535 465.475,394.788 463.224,387.608 L 461.758,383.563 C 460.785,381.192 460.501,380.447 461.271,376.63 C 461.713,374.486 463.967,372.776 466.631,370.793 C 470.148,368.137 474.514,364.839 476.444,358.992 C 479.122,350.939 477.109,339.677 469.189,335.463 C 459.952,330.574 449.66,332.968 443.564,337.512 C 441.664,338.935 439.936,341.502 438.092,344.216 C 434.132,350.093 429.645,356.74 422.17,354.945 C 422.17,354.945 376.823,343.913 359.258,339.632 C 371.574,337.896 465.734,324.601 465.734,324.601 C 472.2,323.653 475.521,329.533 479.052,335.728 C 481.302,339.699 483.656,343.779 486.904,346.08 C 492.789,350.211 502.182,349.827 508.436,347.719 C 513.536,346.004 516.932,343.219 517.999,339.906 C 518.627,337.933 518.913,335.866 518.913,333.745 C 518.912,327.036 516.081,320.061 512.475,315.628 z"
   id="path5" />
	<path
   d="M 163.948,276.604 C 166.05,277.292 168.284,277.671 170.607,277.671 L 426.076,277.671 C 428.401,277.671 430.635,277.292 432.743,276.604 C 443.011,275.105 450.958,265.348 450.958,253.592 L 450.958,209.748 C 450.958,204.93 449.626,200.439 447.357,196.712 L 447.357,101.543 C 447.357,89.831 437.796,80.286 426.076,80.286 L 170.607,80.286 C 158.883,80.286 149.333,89.831 149.333,101.543 L 149.333,196.712 C 147.065,200.434 145.727,204.93 145.727,209.748 L 145.727,253.592 C 145.727,265.348 153.687,275.105 163.948,276.604 z"
   id="path7"
   style="fill:#ffffff;stroke:#ffffff;stroke-width:8" />
	<path
   d="M 163.948,276.604 C 166.05,277.292 168.284,277.671 170.61,277.671 L 426.076,277.671 C 428.401,277.671 430.635,277.292 432.748,276.604 C 443.016,275.105 450.958,265.348 450.958,253.592 L 450.958,209.748 C 450.958,204.93 449.632,200.439 447.357,196.712 L 447.357,101.539 C 447.357,89.828 437.801,80.286 426.076,80.286 L 170.61,80.286 C 158.886,80.286 149.337,89.828 149.337,101.539 L 149.337,196.712 C 147.066,200.434 145.728,204.93 145.728,209.748 L 145.728,253.592 C 145.727,265.348 153.689,275.105 163.948,276.604 z"
   id="path9"
   style="stroke:#000000;stroke-width:3" />
	<path
   d="M 267.422,148.339 L 329.289,148.339 L 329.289,174.166 L 267.422,174.166 L 267.422,148.339 z M 225.277,266.589 C 220.399,266.589 216.462,262.654 216.462,257.773 C 216.462,252.893 220.399,248.924 225.277,248.924 C 230.161,248.924 234.127,252.893 234.127,257.773 C 234.126,262.655 230.161,266.589 225.277,266.589 z M 227.324,197.258 C 213.8,197.258 202.86,186.324 202.86,172.789 C 202.86,159.276 213.8,148.34 227.324,148.34 C 240.83,148.34 251.799,159.277 251.799,172.789 C 251.799,186.324 240.831,197.258 227.324,197.258 z M 259.931,264.584 C 253.563,264.584 248.394,259.381 248.394,253.007 C 248.394,246.621 253.562,241.458 259.931,241.458 C 266.323,241.458 271.511,246.621 271.511,253.007 C 271.511,259.381 266.322,264.584 259.931,264.584 z M 336.766,264.584 C 330.392,264.584 325.201,259.381 325.201,253.007 C 325.201,246.621 330.392,241.458 336.766,241.458 C 343.152,241.458 348.309,246.621 348.309,253.007 C 348.309,259.381 343.151,264.584 336.766,264.584 z M 371.417,266.589 C 366.53,266.589 362.579,262.654 362.579,257.773 C 362.579,252.893 366.53,248.924 371.417,248.924 C 376.304,248.924 380.249,252.893 380.249,257.773 C 380.249,262.655 376.304,266.589 371.417,266.589 z M 369.372,197.258 C 355.866,197.258 344.903,186.324 344.903,172.789 C 344.903,159.276 355.866,148.34 369.372,148.34 C 382.902,148.34 393.842,159.277 393.842,172.789 C 393.842,186.324 382.902,197.258 369.372,197.258 z"
   id="path11"
   style="fill:#ffffff" />
</g>
</svg>